# xmcd
#
# Track frame offsets:
#	150
#	10219
#	22774
#	33164
#	47083
#	60790
#	78398
#	91076
#	107287
#	119893
#	133177
#	147143
#	162600
#	181174
#	194920
#	210430
#	219261
#	232854
#	246159
#	257311
#	269948
#	289225
#	311407
#	325314
#	340406
#
# Disc length: 4727 seconds
#
# Revision: 1
# Processed by: cddbd v1.5.2PL0 Copyright (c) Steve Scherf et al.
# Submitted via: audiograbber 1.83.01
#
DISCID=61127519
DTITLE=varios - die besten country und western songs
DYEAR=1900
DGENRE=
TTITLE0=elvis presley - Blue Moon Of Kentucky
TTITLE1=johnny cash - I Walk The Line
TTITLE2=cliff carlisle - Pan American Man
TTITLE3=ernest phipps - If The Light Has Gone
TTITLE4=gene pitney - Hours From Tulsa
TTITLE5=calls - Convoy
TTITLE6=rogers - Jackson
TTITLE7=scott - L.A. International Airport
TTITLE8=elvis presley - You're A Heartbreaker
TTITLE9=johnny cash - Folsom Prison Blues
TTITLE10=gölen campbell - Rhinestone Cowboy
TTITLE11=jeannie c. riley - Harper Valley P.T.A.
TTITLE12=ricky nelson - Garden Party
TTITLE13=jones - Ghost Rider In The Sky
TTITLE14=goldstein - I Love You
TTITLE15=silverstein - San Quentin
TTITLE16=rodgers - Ruby
TTITLE17=hank williams - Jambalaya
TTITLE18=spade cooley - Indian Summer
TTITLE19=johnny cash - Next In Line
TTITLE20=moman - Somebody Done Somebody Wrong Song
TTITLE21=trad - El Paso
TTITLE22=ad and karin - Rosegarden
TTITLE23=sherill - Exclusive Dreams
TTITLE24=tills - Detroit City
EXTD=
EXTT0=
EXTT1=
EXTT2=
EXTT3=
EXTT4=
EXTT5=
EXTT6=
EXTT7=
EXTT8=
EXTT9=
EXTT10=
EXTT11=
EXTT12=
EXTT13=
EXTT14=
EXTT15=
EXTT16=
EXTT17=
EXTT18=
EXTT19=
EXTT20=
EXTT21=
EXTT22=
EXTT23=
EXTT24=
PLAYORDER=
